<?xml version="1.0" encoding="utf-8"?>
<!-- Generator: Adobe Illustrator 16.0.0, SVG Export Plug-In . SVG Version: 6.00 Build 0)  -->
<!DOCTYPE svg PUBLIC "-//W3C//DTD SVG 1.1//EN" "http://www.w3.org/Graphics/SVG/1.1/DTD/svg11.dtd">
<svg version="1.1" id="Layer_1" xmlns="http://www.w3.org/2000/svg" xmlns:xlink="http://www.w3.org/1999/xlink" x="0px" y="0px"
	 width="801px" height="418px" viewBox="0 0 801 418" enable-background="new 0 0 801 418" xml:space="preserve">
<path fill="#E8F2FB" d="M51.221,402.56c0,0-65.333-81.015-26.133-158.108S138.77,185.65,243.304,107.25
	C370.209,12.07,459.32,6.84,572.588,48.449c64.027,23.521,74.48,120.215,176.402,180.322
	c91.881,54.186,16.986,146.348-31.361,160.722c-48.347,14.373-81.014,14.373-81.014,14.373L51.221,402.56z"/>
<g>
	<path fill="#AB423F" d="M677.257,269.584c0.17-6.538-3.078-12.62-8.557-16.191c-8.886-5.794-24.031-12.632-44.856-11.309
		c-35.151,2.231-42.963,21.759-44.078,36.824s-12.833,36.825-15.624,53.563c-2.788,16.738-7.45,59.32,17.449,62.662
		c24.896,3.344,108.346,0,108.346,0s19.441-22.788,0-66.566C678.403,302.597,676.96,280.985,677.257,269.584z"/>
	<g>
		<g>
			<path fill="#B74D42" d="M694.237,269.584c0.17-6.538-3.077-12.62-8.558-16.191c-8.886-5.794-24.03-12.632-44.855-11.309
				c-35.151,2.231-42.963,21.759-44.078,36.824c-1.116,15.065-12.832,36.825-15.623,53.563c-2.789,16.738-7.45,59.32,17.447,62.662
				c24.897,3.344,108.096,0.497,108.096,0.497s19.693-23.285,0.251-67.063C695.385,302.597,693.94,280.985,694.237,269.584z"/>
			<path fill="#AB423F" d="M593.77,338.608h49.844c0,0,3.348,36.452-20.459,37.568C599.35,377.293,593.026,362.043,593.77,338.608z"
				/>
			<path fill="#B74D42" d="M593.77,338.608c0,0,8.556,13.019,24.179,12.647c15.621-0.373,25.665-12.647,25.665-12.647H593.77z"/>
			<path fill="#AB423F" d="M653.729,338.608h49.844c0,0,3.349,36.452-20.457,37.568
				C659.312,377.293,652.987,362.043,653.729,338.608z"/>
			<path fill="#B74D42" d="M653.729,338.608c0,0,8.556,13.019,24.18,12.647c15.621-0.373,25.664-12.647,25.664-12.647H653.729z"/>
			<path fill="#AB423F" d="M661.189,310.432h-26.503c-12.274,0-22.318-10.042-22.318-22.316l0,0
				c0-12.275,10.044-22.318,22.318-22.318h26.503c12.274,0,22.318,10.043,22.318,22.318l0,0
				C683.508,300.39,673.464,310.432,661.189,310.432z"/>
			<path fill="#B74D42" d="M614.415,263.979c0,0,11.857,18.047,33.515,17.529c21.655-0.515,35.578-17.529,35.578-17.529H614.415z"/>
		</g>
		<g>
			<path fill="#B74D42" d="M666.473,247.069l-6.661-0.68c0-0.008,0.271-3.591-2.083-6.285c-1.814-2.066-4.821-3.226-8.936-3.419
				c-3.898-0.189-6.992,0.664-8.989,2.557c-2.815,2.658-2.886,6.703-2.886,6.747l-6.696,0.025c0-0.278,0.01-6.868,4.899-11.56
				c3.367-3.243,8.083-4.629,13.993-4.463c6.059,0.297,10.679,2.248,13.74,5.805C667.074,240.706,666.498,246.816,666.473,247.069z"
				/>
		</g>
	</g>
</g>
<g>
	<g>
		<path fill="#183660" d="M285.591,303.706h-28.729c0,0-6.312,1.266-8.9,24.741c-2.59,23.474-10.149,65.297-10.149,65.297h38.099
			L285.591,303.706z"/>
		<path fill="#1C478A" d="M266.162,393.742c3.326-0.471,154.812,0,154.812,0s6.126-1.054,0.678-32.961
			c-0.272-1.605-0.447-3.314-0.538-5.094c-0.483-8.69,0.78-19.056,0.339-27.391c0,0,1.941-26.71-27.086-24.495
			c-29.027,2.216-81.941,2.428-101.897-0.113c-19.956-2.544-24.493,16.503-23.585,28.46c0.145,1.924,0.09,4.82-0.091,8.337
			C267.825,358.884,263.368,394.133,266.162,393.742z"/>
	</g>
	<g>
		<path fill="#1C478A" d="M311.091,314.689c0.097-0.194,10.035-19.885,26.498-21.096c16.646-1.231,33.261,18.828,33.426,19.03
			l3.571-4.387c-0.739-0.909-18.36-22.228-37.302-20.835c-19.146,1.412-30.063,23.156-30.518,24.08L311.091,314.689z"/>
	</g>
</g>
<path fill="#183660" d="M440.197,228.385c-16.306,33.102-36.752,123.558-42.328,128.514c-5.575,4.957-37.792,24.162-43.368,33.455
	c-5.576,9.294-3.098,6.196-0.619,6.816c2.478,0.619,142.497,1.238,142.497,1.238s-16.108-96.031-17.967-96.65
	C476.553,301.139,440.197,228.385,440.197,228.385z"/>
<path fill="#0A2542" d="M417.012,397.96c25.717,0.18,52.853,0.321,67.791,0.394L464.35,276.037
	c-10.908-21.15-24.152-47.652-24.152-47.652c-2.055,4.174-4.177,9.258-6.326,14.969c-2.121,91.87,11.11,117.621,1.172,133.99
	C427.287,390.117,420.209,395.832,417.012,397.96z"/>
<path fill="#2F3652" d="M707.737,404.539H35.379c-2.863,0-5.186-2.322-5.186-5.186c0-2.865,2.322-5.188,5.186-5.188h672.358
	c2.864,0,5.187,2.322,5.187,5.188C712.924,402.217,710.602,404.539,707.737,404.539z"/>
<path fill="#183660" d="M526.066,188.432c23.257,21.467,75.022,41.824,75.022,41.824s7.865,72.668,2.499,113.813
	c-5.367,41.146-2.386,49.493-2.386,49.493H494.463c0,0-14.326-19.879-40.55-81.693c-16.696-39.357-13.716-83.484-13.716-83.484
	l64.999-29.219L526.066,188.432z"/>
<path fill="#0A2542" d="M494.463,393.563h106.739c0,0-2.981-8.348,2.386-49.493c4.419-33.88-0.134-89.132-1.879-107.588l-9.707-4.16
	c-24.371,7.022-38.414,43.371-42.545,78.894c-2.764,23.77-42.142,47.167-67.899,60.049
	C490.02,387.396,494.463,393.563,494.463,393.563z"/>
<path fill="#2F5C9B" d="M470.402,167.93c-0.468-1.119,19.475-48.385,19.475-48.385l-21.583-5.701"/>
<path fill="#DCA686" d="M517.053,135.035l16.318,59.646c0.46,1.683,0.068,3.477-1.032,4.831
	c-3.828,4.715-9.278,14.414-20.271,17.524c-2.138,0.604-4.771,0.767-6.902,0.774c-2.241,0.008-4.173-1.57-4.598-3.77l-10.934-56.572
	L517.053,135.035z"/>
<path fill="#DCA686" d="M513.937,140.021l-5.965,2.443l-18.338,15.004l9.843,50.156C516.17,197.217,518.604,190.193,513.937,140.021
	z"/>
<path fill="#DCA686" d="M516.453,161.42c-3.612,19.62-18.295,32.891-32.794,29.639c-14.499-3.251-21.417-15.951-19.714-41.414
	c1.335-19.977,11.186-41.689,25.686-38.438C504.131,114.458,520.064,141.799,516.453,161.42z"/>
<path fill="#183660" d="M601.089,230.256c21.597,4.877,25.61,48.74,32.632,95.003c0.809,5.325,4.957,50.394,4.957,50.394
	s0.412,8.262-7.849,12.392c-7.058,3.529-9.913,6.196-50.806,6.608c-39.273,0.397-89.909-1.238-89.909-1.238
	s-0.448-14.613,3.579-21.754c6.059-10.74,68.155-26.16,73.938-26.986c0.826-11.566-5.701-53.412,3.305-81.786
	c6.196-19.517,12.857-29.74,21.201-32.412C594.919,229.585,597.888,229.533,601.089,230.256z"/>
<path fill="#0A2542" d="M512.32,394.304c19.361,0.292,45.932,0.569,67.703,0.349c40.893-0.412,43.748-3.079,50.806-6.608
	c8.261-4.13,8.675-11.152,8.675-11.152s-4.176-47.956-4.957-53.284c-4.544-30.98-9.453-66.43-20.879-83.541
	c10.74,31.48,12.469,58.043,12.662,69.389c0.098,5.744-0.434,13.613-2.109,19.109c-1.859,6.092-6.609,9.913-14.045,7.848
	c-14.869-4.131-33.457,4.543-33.457,4.543s14.044-4.957,27.262-0.412c13.218,4.543,40.479,34.696,10.739,45.849
	C605.619,389.805,551.109,392.588,512.32,394.304z"/>
<path fill="#97CFE0" d="M496.998,373.036c0,0,5.508-9.362,16.799-9.362c11.29,0,10.464,18.449,8.812,24.508
	c-1.653,6.059-8.262,6.334-8.262,6.334l-24.232-1.102L496.998,373.036z"/>
<path fill="#78A0D4" d="M472.433,398.721H319.668c-2.304,0-4.188-1.886-4.188-4.189v-1.203c0-2.305,1.885-4.189,4.188-4.189h152.765
	c2.304,0,4.188,1.885,4.188,4.189v1.203C476.621,396.835,474.736,398.721,472.433,398.721z"/>
<path fill="#DCA686" d="M493.969,374.138c-23.682-8.536-29.895-5.323-35.247-6.884c-13.218-3.855-16.522-0.551-25.059,22.855
	c-1.7,4.664,3.305,4.957,8.261,4.957c4.957,0,11.016-9.639,12.943-10.74c1.927-1.102,7.159-1.652,7.159-1.652s-1.652,0-4.131,4.957
	c-2.478,4.957-5.507,6.885-1.651,6.885c3.854,0,4.405-6.334,11.564-4.957c7.16,1.377,4.406,4.957,22.306,4.682
	s31.407-0.001,31.117-10.74c-0.276-10.188,0.853-15.283-8.812-17.072C504.984,365.051,493.969,374.138,493.969,374.138z"/>
<path fill="#A86C49" d="M494.279,374.138c15.834-1.79,11.188,17.934,9.535,19.586s8.815,0.58,8.815,0.58s4.919-7.912,0.788-16.999
	c-4.131-9.088-12.392-9.5-12.392-9.5l-7.022,3.855L494.279,374.138z"/>
<ellipse transform="matrix(0.9965 0.0832 -0.0832 0.9965 32.6839 -40.4928)" fill="#2F5C9B" cx="501.904" cy="371.677" rx="8.939" ry="4.441"/>
<ellipse transform="matrix(0.9965 0.0833 -0.0833 0.9965 32.5961 -40.4799)" fill="#406CAC" cx="501.594" cy="370.54" rx="7.987" ry="3.969"/>
<ellipse transform="matrix(0.9965 0.0832 -0.0832 0.9965 32.5092 -40.4211)" fill="#F0CEB5" cx="501.077" cy="369.715" rx="5.749" ry="2.856"/>
<g>
	<path fill="#78A0D4" d="M314.082,368.461H160.191c-8.095,0-15.035-5.862-16.498-13.936l-20.07-110.787
		c-1.893-10.449,6.021-20.079,16.498-20.079h153.89c8.096,0,15.036,5.861,16.498,13.935l20.071,110.787
		C332.473,358.83,324.56,368.461,314.082,368.461z"/>
	<path fill="#ACCBEB" d="M321.271,348.797l-20.483-108.496c-1.493-7.905-8.576-13.646-16.839-13.646H127.56
		c-3.282,3.812-4.926,9.028-3.927,14.466l20.776,113.112c1.514,8.242,8.698,14.228,17.077,14.228h142.947
		C315.127,368.461,323.203,359.029,321.271,348.797z"/>
	<path fill="#78A0D4" d="M284.164,383.296H254.95c-5.21,0-9.434-4.64-9.434-10.364V319.52c0-9.111-6.723-16.496-15.016-16.496
		H215.24c-8.292,0-15.015,7.385-15.015,16.496v59.816c0,10.229,7.579,18.503,16.89,18.439l79.73-0.547
		C296.846,389.533,291.168,383.296,284.164,383.296z"/>
	<path fill="#ACCBEB" d="M201.388,320.719v58.9c0,9.588,7.432,17.427,16.835,18.104l77.813-0.486
		c-0.009-1.275-6.143-3.598-13.719-3.598h-31.602c-5.637,0-10.205-4.568-10.205-10.205v-62.715c0-8.972-7.272-16.243-16.243-16.243
		h-6.637C208.659,304.476,201.388,311.747,201.388,320.719z"/>
</g>
<path fill="#DCA686" d="M364.257,376.509c11.76-6.532,26.132-4.355,31.357,2.178c5.227,6.532,6.098,10.888-5.661,10.888
	s-35.277,0.871-39.197,0.436C346.837,389.574,364.257,376.509,364.257,376.509z"/>
<path fill="#DCA686" d="M381.678,372.589c12.631-3.048,21.26,4.301,31.793,11.323c9.146,6.098,10.984,12.025,0.871,6.969
	c-14.807-7.404-23.518-8.275-23.518-8.275L381.678,372.589z"/>
<path fill="#DCA686" d="M370.174,376.469c-6.379,0-11.945-2.034-16.448-1.658c-4.503,0.375-18.76,15.008-16.509,16.133
	c0.16,0.08,0.337,0.154,0.525,0.225c3.386,1.246,7.206-0.136,9.113-3.196c2.018-3.238,5.3-7.007,9.121-5.658
	c6.379,2.252,13.072,2.034,13.072,2.034L370.174,376.469z"/>
<path fill="#DCA686" d="M366.436,392.188c-6.533-2.613,3.919-24.389,7.403-24.389s16.55,10.452,16.55,10.452
	s-3.073,1.733-13.501-1.742c-2.613-0.871-4.791,13.937-7.839,15.679C366,393.93,366.436,392.188,366.436,392.188z"/>
<path fill="#614A24" d="M463.935,161.112c-0.606,23.979,7.563,28.034,13.278,31.29c5.715,3.256,30.332-2.123,33.946-8.053
	c9.245-15.173,1.464-29.321,3.53-29.107c2.068,0.215,3.959,6.121,9.352,13.787c0.502,0.713,4.005,5.451,4.188,3.875
	c2.503-21.473,13.685-28.141,11.021-49.858c-1.963-16.011-12.126-14.74-12.126-14.74s-6.557-13.397-26.966-11.876
	c-13.674,1.02-25.864,6.346-39.96,9.975c-14.096,3.628,16.676,35.578,34.96,23.905c18.285-11.673,9.256,14.038,12.142,16.032
	c2.885,1.995,1.387,0.266,2.71,13.423c1.322,13.157-15.386,21.747-20.175,22.873c-15.312,3.602-17.872,1.076-21.226-4.69
	C465.701,172.944,463.935,161.112,463.935,161.112z"/>
<path fill="#DCA686" d="M527.315,153.688c-1.757,6.043-6.05,9.947-9.588,8.721c-3.538-1.228-3.645-6.139-3.228-13.165
	c0.376-6.334,6.049-9.948,9.588-8.721S529.071,147.644,527.315,153.688z"/>
<g>
	<g>
		<path fill="#BBE0F6" d="M192.715,137.463H61.993c-1.423,0-2.576-1.153-2.576-2.576V78.634c0-1.423,1.153-2.575,2.576-2.575
			h130.722c1.424,0,2.576,1.152,2.576,2.575v56.253C195.291,136.31,194.139,137.463,192.715,137.463z"/>
		<path fill="#FFFFFF" d="M189.495,134.581H65.213c-1.149,0-2.081-0.933-2.081-2.081V94.271c0-1.148,0.932-2.081,2.081-2.081
			h124.282c1.149,0,2.081,0.933,2.081,2.081V132.5C191.576,133.648,190.645,134.581,189.495,134.581z"/>
		<g>
			<path fill="#FFFFFF" d="M69.188,85.367h-3.017c-0.637,0-1.153-0.516-1.153-1.152V81.73c0-0.637,0.517-1.153,1.153-1.153h3.017
				c0.636,0,1.153,0.517,1.153,1.153v2.484C70.342,84.852,69.824,85.367,69.188,85.367z"/>
			<path fill="#FFFFFF" d="M78.866,85.367H75.85c-0.637,0-1.152-0.516-1.152-1.152V81.73c0-0.637,0.516-1.153,1.152-1.153h3.017
				c0.637,0,1.153,0.517,1.153,1.153v2.484C80.02,84.852,79.503,85.367,78.866,85.367z"/>
			<path fill="#FFFFFF" d="M88.545,85.367h-3.018c-0.637,0-1.152-0.516-1.152-1.152V81.73c0-0.637,0.516-1.153,1.152-1.153h3.018
				c0.636,0,1.152,0.517,1.152,1.153v2.484C89.697,84.852,89.181,85.367,88.545,85.367z"/>
		</g>
		<path fill="#BBE0F6" d="M186.35,101.481H118.41c-1.118,0-2.033-0.914-2.033-2.032c0-1.117,0.915-2.032,2.033-2.032h67.939
			c1.118,0,2.033,0.915,2.033,2.032C188.383,100.567,187.468,101.481,186.35,101.481z"/>
		<path fill="#BBE0F6" d="M135.249,132.839h-67.94c-1.118,0-2.032-0.915-2.032-2.032s0.914-2.032,2.032-2.032h67.94
			c1.118,0,2.032,0.915,2.032,2.032S136.367,132.839,135.249,132.839z"/>
		<path fill="#BBE0F6" d="M147.765,132.839h-7.029c-0.382,0-0.695-0.313-0.695-0.695v-2.674c0-0.383,0.313-0.695,0.695-0.695h7.029
			c0.383,0,0.695,0.313,0.695,0.695v2.674C148.46,132.526,148.147,132.839,147.765,132.839z"/>
		<path fill="#BBE0F6" d="M158.363,132.839h-7.03c-0.382,0-0.695-0.313-0.695-0.695v-2.674c0-0.383,0.313-0.695,0.695-0.695h7.03
			c0.382,0,0.694,0.313,0.694,0.695v2.674C159.058,132.526,158.745,132.839,158.363,132.839z"/>
		<path fill="#BBE0F6" d="M187.003,110.337H74.494c-0.758,0-1.379-0.62-1.379-1.379s0.621-1.379,1.379-1.379h112.509
			c0.759,0,1.38,0.62,1.38,1.379S187.762,110.337,187.003,110.337z"/>
		<path fill="#BBE0F6" d="M187.003,116.289H74.494c-0.758,0-1.379-0.62-1.379-1.379c0-0.758,0.621-1.379,1.379-1.379h112.509
			c0.759,0,1.38,0.621,1.38,1.379C188.383,115.669,187.762,116.289,187.003,116.289z"/>
	</g>
	<g>
		<path fill="#A4C6E8" d="M223.418,180.577H92.695c-1.423,0-2.576-1.153-2.576-2.576v-56.253c0-1.423,1.153-2.576,2.576-2.576
			h130.723c1.422,0,2.576,1.153,2.576,2.576v56.253C225.994,179.424,224.84,180.577,223.418,180.577z"/>
		<path fill="#FFFFFF" d="M220.197,177.695H95.916c-1.15,0-2.082-0.932-2.082-2.081v-38.229c0-1.149,0.932-2.081,2.082-2.081
			h124.281c1.15,0,2.082,0.932,2.082,2.081v38.229C222.279,176.764,221.348,177.695,220.197,177.695z"/>
		<g>
			<path fill="#FFFFFF" d="M99.891,128.481h-3.017c-0.637,0-1.153-0.517-1.153-1.153v-2.483c0-0.638,0.517-1.153,1.153-1.153h3.017
				c0.637,0,1.153,0.516,1.153,1.153v2.483C101.044,127.965,100.527,128.481,99.891,128.481z"/>
			<path fill="#FFFFFF" d="M109.568,128.481h-3.016c-0.638,0-1.154-0.517-1.154-1.153v-2.483c0-0.638,0.517-1.153,1.154-1.153h3.016
				c0.637,0,1.154,0.516,1.154,1.153v2.483C110.723,127.965,110.205,128.481,109.568,128.481z"/>
			<path fill="#FFFFFF" d="M119.246,128.481h-3.016c-0.637,0-1.154-0.517-1.154-1.153v-2.483c0-0.638,0.518-1.153,1.154-1.153h3.016
				c0.638,0,1.154,0.516,1.154,1.153v2.483C120.4,127.965,119.884,128.481,119.246,128.481z"/>
		</g>
	</g>
</g>
<g>
	<circle fill="#156734" cx="256.696" cy="165.553" r="17.638"/>
	<g>
		<path fill="#FFFFFF" d="M254.945,172.07c-0.016,0-0.033-0.001-0.049-0.002c-0.369-0.014-0.715-0.178-0.959-0.454l-4.79-5.444
			c-0.489-0.557-0.436-1.405,0.121-1.895c0.556-0.49,1.405-0.436,1.895,0.12l3.855,4.382l9.223-9.027
			c0.53-0.519,1.38-0.51,1.898,0.021c0.52,0.53,0.51,1.38-0.021,1.899l-10.234,10.017
			C255.634,171.933,255.297,172.07,254.945,172.07z"/>
	</g>
</g>
<g>
	<path fill="#A4C6E8" d="M387.342,83.623H275.196c-2.875,0-5.227-2.353-5.227-5.227V38.329c0-2.875,2.352-5.227,5.227-5.227h112.146
		c2.874,0,5.226,2.352,5.226,5.227v40.067C392.567,81.271,390.216,83.623,387.342,83.623z"/>
	<path fill="#A4C6E8" d="M284.777,76.001v27.873l32.119-32.119C316.896,71.755,285.431,76.001,284.777,76.001z"/>
	<path fill="#FFFFFF" d="M381.795,78.614H280.742c-2.438,0-4.432-1.993-4.432-4.431V42.542c0-2.437,1.994-4.431,4.432-4.431h101.053
		c2.438,0,4.432,1.994,4.432,4.431v31.642C386.227,76.621,384.232,78.614,381.795,78.614z"/>
	<g>
		<path fill="#A4C6E8" d="M358.605,76.873h-3.017c-0.637,0-1.153-0.518-1.153-1.154v-2.484c0-0.637,0.517-1.153,1.153-1.153h3.017
			c0.637,0,1.153,0.517,1.153,1.153v2.484C359.759,76.355,359.242,76.873,358.605,76.873z"/>
		<path fill="#A4C6E8" d="M368.283,76.873h-3.017c-0.636,0-1.152-0.518-1.152-1.154v-2.484c0-0.637,0.517-1.153,1.152-1.153h3.017
			c0.637,0,1.153,0.517,1.153,1.153v2.484C369.437,76.355,368.92,76.873,368.283,76.873z"/>
		<path fill="#A4C6E8" d="M377.962,76.873h-3.017c-0.637,0-1.153-0.518-1.153-1.154v-2.484c0-0.637,0.517-1.153,1.153-1.153h3.017
			c0.637,0,1.153,0.517,1.153,1.153v2.484C379.115,76.355,378.599,76.873,377.962,76.873z"/>
	</g>
</g>
<g>
	<path fill="#156734" d="M291.593,63.889l6.593-15.606l6.316,15.606h-1.486l-1.918-5.086h-6.131l-1.99,5.086H291.593z
		 M295.428,57.634h5.229l-2.563-6.532L295.428,57.634z"/>
	<path fill="#156734" d="M318.12,52.65c-0.608-0.943-1.357-1.657-2.245-2.143c-0.89-0.485-1.891-0.729-3.005-0.729
		c-1.859,0-3.374,0.629-4.542,1.887c-1.17,1.258-1.754,2.889-1.754,4.891c0,0.896,0.155,1.74,0.467,2.533
		c0.311,0.793,0.764,1.497,1.358,2.112c0.602,0.608,1.274,1.064,2.021,1.369c0.744,0.304,1.562,0.456,2.45,0.456
		c1.682,0,3.051-0.495,4.106-1.486c1.057-0.991,1.598-2.287,1.625-3.887h-5.178v-1.18h6.676v0.164c0,2.394-0.653,4.266-1.959,5.619
		s-3.104,2.031-5.394,2.031c-2.276,0-4.119-0.725-5.526-2.174c-1.409-1.449-2.113-3.35-2.113-5.701c0-1.08,0.178-2.101,0.533-3.062
		c0.355-0.96,0.868-1.796,1.539-2.507c0.724-0.772,1.543-1.35,2.455-1.732c0.913-0.383,1.93-0.574,3.051-0.574
		c1.524,0,2.83,0.274,3.917,0.825c1.087,0.55,1.924,1.358,2.513,2.425L318.12,52.65z"/>
	<path fill="#156734" d="M332.086,63.889h-1.662l-5.27-7.157h-0.82v7.157h-1.364V48.877h2.759c1.626,0,2.845,0.338,3.655,1.016
		c0.81,0.676,1.215,1.701,1.215,3.076c0,1.168-0.347,2.088-1.041,2.758c-0.693,0.67-1.649,1.005-2.866,1.005L332.086,63.889z
		 M324.334,50.066v5.547h1.373c1.271,0,2.159-0.203,2.661-0.609c0.503-0.407,0.754-1.099,0.754-2.076
		c0-1.032-0.26-1.768-0.779-2.205s-1.398-0.656-2.636-0.656H324.334z"/>
	<path fill="#156734" d="M334.054,63.889V48.877h7.435v1.281h-6.07v4.697h6.07v1.281h-6.07v6.471h6.07v1.281H334.054z"/>
	<path fill="#156734" d="M344.831,63.889V48.877h7.435v1.281h-6.07v4.697h6.07v1.281h-6.07v6.471h6.07v1.281H344.831z"/>
	<path fill="#156734" d="M355.608,63.889V48.877h2.338c2.085,0,3.564,0.103,4.44,0.308c0.874,0.205,1.626,0.558,2.256,1.056
		c0.833,0.664,1.469,1.518,1.906,2.564c0.438,1.045,0.656,2.242,0.656,3.588c0,1.348-0.219,2.545-0.656,3.595
		c-0.438,1.049-1.066,1.889-1.887,2.517c-0.649,0.5-1.391,0.855-2.225,1.066c-0.834,0.213-2.178,0.318-4.029,0.318h-0.462H355.608z
		 M356.973,62.709h1.917c1.552,0,2.652-0.087,3.302-0.261c0.649-0.175,1.199-0.47,1.65-0.888c0.629-0.587,1.104-1.318,1.426-2.193
		s0.482-1.873,0.482-2.994c0-1.148-0.163-2.16-0.487-3.035c-0.325-0.875-0.806-1.593-1.44-2.154
		c-0.479-0.43-1.063-0.734-1.754-0.912s-1.896-0.267-3.619-0.267h-0.257h-1.22V62.709z"/>
</g>
<g>
	<path fill="#78A0D4" stroke="#78A0D4" stroke-width="0.5" stroke-miterlimit="10" d="M98.653,159.719v-7.191h-2.165v-0.672h5.049
		v0.672h-2.17v7.191H98.653z"/>
	<path fill="#78A0D4" stroke="#78A0D4" stroke-width="0.5" stroke-miterlimit="10" d="M102.725,159.719v-7.863h3.894v0.672h-3.18
		v2.459h3.18v0.672h-3.18v3.389h3.18v0.672H102.725z"/>
	<path fill="#78A0D4" stroke="#78A0D4" stroke-width="0.5" stroke-miterlimit="10" d="M113.145,159.719h-0.869l-2.762-3.749h-0.43
		v3.749h-0.714v-7.863h1.444c0.853,0,1.491,0.178,1.915,0.531c0.425,0.355,0.637,0.893,0.637,1.611c0,0.613-0.182,1.095-0.545,1.445
		s-0.864,0.526-1.501,0.526L113.145,159.719z M109.084,152.479v2.906h0.721c0.666,0,1.13-0.107,1.394-0.32
		c0.263-0.213,0.395-0.575,0.395-1.088c0-0.54-0.136-0.925-0.408-1.154s-0.732-0.344-1.38-0.344H109.084z"/>
	<path fill="#78A0D4" stroke="#78A0D4" stroke-width="0.5" stroke-miterlimit="10" d="M117.764,160.025l-2.761-6.312l-0.596,6.005
		h-0.736l1.068-8.196l3.014,6.999l3.126-6.999l1.01,8.196h-0.735l-0.586-6.005L117.764,160.025z"/>
	<path fill="#78A0D4" stroke="#78A0D4" stroke-width="0.5" stroke-miterlimit="10" d="M122.77,158.397l0.612-0.327
		c0.114,0.387,0.313,0.687,0.594,0.899s0.618,0.319,1.012,0.319c0.498,0,0.887-0.146,1.166-0.44s0.419-0.7,0.419-1.22
		c0-0.379-0.094-0.694-0.282-0.945c-0.188-0.25-0.592-0.54-1.211-0.869c-0.791-0.42-1.317-0.788-1.579-1.107
		c-0.262-0.318-0.392-0.701-0.392-1.148c0-0.559,0.188-1.014,0.566-1.365c0.378-0.351,0.867-0.525,1.469-0.525
		c0.394,0,0.736,0.083,1.028,0.249c0.292,0.167,0.529,0.417,0.712,0.749L126.331,153c-0.115-0.227-0.277-0.398-0.486-0.516
		c-0.21-0.119-0.458-0.178-0.744-0.178c-0.387,0-0.694,0.113-0.924,0.341s-0.344,0.534-0.344,0.921c0,0.552,0.455,1.065,1.364,1.542
		c0.165,0.086,0.29,0.152,0.376,0.198c0.67,0.369,1.117,0.718,1.343,1.045c0.226,0.328,0.339,0.753,0.339,1.275
		c0,0.706-0.206,1.266-0.618,1.679c-0.412,0.414-0.972,0.62-1.681,0.62c-0.516,0-0.957-0.128-1.324-0.384
		S122.978,158.906,122.77,158.397z"/>
	<path fill="#78A0D4" stroke="#78A0D4" stroke-width="0.5" stroke-miterlimit="10" d="M130.944,159.719l3.454-8.175l3.309,8.175
		h-0.779l-1.004-2.664h-3.213l-1.041,2.664H130.944z M132.953,156.442h2.739l-1.343-3.421L132.953,156.442z"/>
	<path fill="#78A0D4" stroke="#78A0D4" stroke-width="0.5" stroke-miterlimit="10" d="M138.587,159.719v-8.196l5.569,6.579v-6.246
		h0.666v8.094l-5.564-6.59v6.359H138.587z"/>
	<path fill="#78A0D4" stroke="#78A0D4" stroke-width="0.5" stroke-miterlimit="10" d="M146.784,159.719v-7.863h1.225
		c1.092,0,1.867,0.054,2.325,0.161c0.459,0.107,0.853,0.292,1.182,0.554c0.438,0.347,0.771,0.795,1,1.342
		c0.229,0.549,0.344,1.175,0.344,1.881c0,0.705-0.115,1.332-0.344,1.882c-0.229,0.55-0.559,0.989-0.988,1.319
		c-0.341,0.261-0.729,0.447-1.166,0.559c-0.437,0.11-1.141,0.166-2.111,0.166h-0.241H146.784z M147.498,159.102h1.005
		c0.813,0,1.39-0.046,1.729-0.138c0.34-0.091,0.629-0.246,0.865-0.464c0.329-0.309,0.578-0.691,0.746-1.15
		c0.168-0.458,0.252-0.98,0.252-1.568c0-0.602-0.085-1.131-0.255-1.59c-0.17-0.458-0.421-0.834-0.755-1.127
		c-0.25-0.227-0.557-0.386-0.918-0.479s-0.994-0.14-1.896-0.14h-0.134h-0.64V159.102z"/>
	<path fill="#78A0D4" stroke="#78A0D4" stroke-width="0.5" stroke-miterlimit="10" d="M163.934,153.295
		c-0.391-0.337-0.79-0.586-1.198-0.746c-0.408-0.162-0.838-0.242-1.289-0.242c-1.017,0-1.843,0.322-2.479,0.967
		s-0.953,1.484-0.953,2.52c0,0.519,0.078,0.986,0.233,1.401c0.156,0.415,0.394,0.784,0.712,1.106
		c0.315,0.315,0.676,0.555,1.082,0.72s0.843,0.247,1.309,0.247c0.451,0,0.891-0.077,1.32-0.23c0.43-0.154,0.837-0.382,1.22-0.683
		v0.838c-0.387,0.236-0.796,0.418-1.228,0.545s-0.858,0.19-1.281,0.19c-0.568,0-1.113-0.102-1.633-0.306
		c-0.519-0.204-0.965-0.49-1.337-0.859c-0.383-0.38-0.673-0.82-0.87-1.321s-0.295-1.051-0.295-1.648
		c0-0.588,0.101-1.136,0.303-1.645c0.202-0.508,0.493-0.946,0.873-1.315c0.369-0.361,0.813-0.645,1.335-0.849
		c0.521-0.204,1.063-0.307,1.624-0.307c0.502,0,0.967,0.069,1.395,0.207s0.817,0.345,1.168,0.621L163.934,153.295z"/>
	<path fill="#78A0D4" stroke="#78A0D4" stroke-width="0.5" stroke-miterlimit="10" d="M173.526,155.803
		c0,0.556-0.105,1.083-0.317,1.582c-0.211,0.5-0.516,0.944-0.913,1.335c-0.405,0.394-0.862,0.693-1.371,0.899
		s-1.046,0.309-1.612,0.309c-0.565,0-1.103-0.103-1.609-0.309s-0.961-0.506-1.362-0.899c-0.401-0.397-0.707-0.844-0.917-1.34
		c-0.209-0.496-0.313-1.021-0.313-1.577c0-0.562,0.104-1.093,0.313-1.592c0.21-0.5,0.516-0.948,0.917-1.346
		c0.394-0.391,0.844-0.686,1.349-0.887c0.505-0.2,1.047-0.301,1.623-0.301c0.581,0,1.124,0.102,1.632,0.304
		c0.507,0.202,0.957,0.497,1.352,0.884c0.401,0.397,0.706,0.846,0.916,1.346C173.422,154.71,173.526,155.241,173.526,155.803z
		 M169.313,159.289c0.466,0,0.907-0.086,1.322-0.258c0.416-0.172,0.79-0.423,1.124-0.752c0.326-0.333,0.576-0.712,0.749-1.136
		c0.174-0.425,0.261-0.871,0.261-1.341c0-0.473-0.086-0.919-0.258-1.34s-0.423-0.799-0.752-1.136
		c-0.326-0.329-0.698-0.58-1.115-0.752c-0.418-0.172-0.861-0.258-1.331-0.258c-0.466,0-0.904,0.086-1.316,0.258
		s-0.785,0.423-1.118,0.752c-0.33,0.34-0.581,0.719-0.753,1.136s-0.258,0.864-0.258,1.34c0,0.473,0.086,0.92,0.258,1.341
		s0.423,0.799,0.753,1.136c0.329,0.333,0.698,0.585,1.107,0.755C168.394,159.204,168.836,159.289,169.313,159.289z"/>
	<path fill="#78A0D4" stroke="#78A0D4" stroke-width="0.5" stroke-miterlimit="10" d="M175.105,159.719v-8.196l5.569,6.579v-6.246
		h0.666v8.094l-5.564-6.59v6.359H175.105z"/>
	<path fill="#78A0D4" stroke="#78A0D4" stroke-width="0.5" stroke-miterlimit="10" d="M183.302,159.719v-7.863h1.225
		c1.092,0,1.867,0.054,2.325,0.161c0.459,0.107,0.853,0.292,1.182,0.554c0.438,0.347,0.771,0.795,1,1.342
		c0.229,0.549,0.344,1.175,0.344,1.881c0,0.705-0.115,1.332-0.344,1.882c-0.229,0.55-0.559,0.989-0.988,1.319
		c-0.341,0.261-0.729,0.447-1.166,0.559c-0.437,0.11-1.141,0.166-2.111,0.166h-0.241H183.302z M184.016,159.102h1.005
		c0.813,0,1.39-0.046,1.729-0.138c0.34-0.091,0.629-0.246,0.865-0.464c0.329-0.309,0.578-0.691,0.746-1.15
		c0.168-0.458,0.252-0.98,0.252-1.568c0-0.602-0.085-1.131-0.255-1.59c-0.17-0.458-0.421-0.834-0.755-1.127
		c-0.25-0.227-0.557-0.386-0.918-0.479s-0.994-0.14-1.896-0.14h-0.134h-0.64V159.102z"/>
	<path fill="#78A0D4" stroke="#78A0D4" stroke-width="0.5" stroke-miterlimit="10" d="M190.966,159.719v-7.863h0.714v7.863H190.966z
		"/>
	<path fill="#78A0D4" stroke="#78A0D4" stroke-width="0.5" stroke-miterlimit="10" d="M195.038,159.719v-7.191h-2.165v-0.672h5.049
		v0.672h-2.17v7.191H195.038z"/>
	<path fill="#78A0D4" stroke="#78A0D4" stroke-width="0.5" stroke-miterlimit="10" d="M199.108,159.719v-7.863h0.714v7.863H199.108z
		"/>
	<path fill="#78A0D4" stroke="#78A0D4" stroke-width="0.5" stroke-miterlimit="10" d="M209.83,155.803
		c0,0.556-0.105,1.083-0.317,1.582c-0.211,0.5-0.516,0.944-0.913,1.335c-0.405,0.394-0.862,0.693-1.371,0.899
		s-1.046,0.309-1.612,0.309c-0.565,0-1.103-0.103-1.609-0.309s-0.961-0.506-1.362-0.899c-0.401-0.397-0.707-0.844-0.917-1.34
		c-0.209-0.496-0.313-1.021-0.313-1.577c0-0.562,0.104-1.093,0.313-1.592c0.21-0.5,0.516-0.948,0.917-1.346
		c0.394-0.391,0.844-0.686,1.349-0.887c0.505-0.2,1.047-0.301,1.623-0.301c0.581,0,1.124,0.102,1.632,0.304
		c0.507,0.202,0.957,0.497,1.352,0.884c0.401,0.397,0.706,0.846,0.916,1.346C209.726,154.71,209.83,155.241,209.83,155.803z
		 M205.616,159.289c0.466,0,0.907-0.086,1.322-0.258c0.416-0.172,0.79-0.423,1.124-0.752c0.326-0.333,0.576-0.712,0.749-1.136
		c0.174-0.425,0.261-0.871,0.261-1.341c0-0.473-0.086-0.919-0.258-1.34s-0.423-0.799-0.752-1.136
		c-0.326-0.329-0.698-0.58-1.115-0.752c-0.418-0.172-0.861-0.258-1.331-0.258c-0.466,0-0.904,0.086-1.316,0.258
		s-0.785,0.423-1.118,0.752c-0.33,0.34-0.581,0.719-0.753,1.136s-0.258,0.864-0.258,1.34c0,0.473,0.086,0.92,0.258,1.341
		s0.423,0.799,0.753,1.136c0.329,0.333,0.698,0.585,1.107,0.755C204.697,159.204,205.14,159.289,205.616,159.289z"/>
	<path fill="#78A0D4" stroke="#78A0D4" stroke-width="0.5" stroke-miterlimit="10" d="M211.409,159.719v-8.196l5.569,6.579v-6.246
		h0.666v8.094l-5.564-6.59v6.359H211.409z"/>
</g>
</svg>
